<svg xmlns="http://www.w3.org/2000/svg" height="87" width="87" viewBox="0 0 86.6 86.6"><style>.a{opacity:0.5;}</style><g fill="none"><rect rx="43.3" height="86.6" width="86.6" y="0.4" x="0.2" transform="translate(-0.17100152 -0.39700151)rotate(-180 43.471 43.697)" fill="#a78ce9"/><g fill="#fff"><path d="M19.9 29.8 43.3 16.2 66.7 29.8V56.8L43.3 70.4 19.9 56.8Z" class="a"/><path d="m66.9 30.2-11.7 6.8v0 0L43.3 29.8 31.6 36.5 19.8 29.8v27.1h0 0l23.4 13.5h0 0v0 0L66.7 56.8H66.7 66.7ZM55 50.1 43.3 56.8 31.6 50.1 43.3 43.3Z" class="a"/><path d="M55 36.5V50.1L43.3 43.3V29.8ZM31.6 50.1V36.5L19.8 29.8v27.1h0 0l23.4 13.5h0 0V56.8Z" opacity="0.9"/></g></g></svg>
