<?xml version="1.0" encoding="UTF-8" standalone="no"?>
<svg
   xmlns:dc="http://purl.org/dc/elements/1.1/"
   xmlns:cc="http://creativecommons.org/ns#"
   xmlns:rdf="http://www.w3.org/1999/02/22-rdf-syntax-ns#"
   xmlns:svg="http://www.w3.org/2000/svg"
   xmlns="http://www.w3.org/2000/svg"
   height="64"
   width="77.989998"
   id="svg14"
   version="1.1"
   class="jsx-814442409 avatar_mission"
   viewBox="0 0 77.989998 64">
  <metadata
     id="metadata20">
    <rdf:RDF>
      <cc:Work
         rdf:about="">
        <dc:format>image/svg+xml</dc:format>
        <dc:type
           rdf:resource="http://purl.org/dc/dcmitype/StillImage" />
      </cc:Work>
    </rdf:RDF>
  </metadata>
  <defs
     id="defs18" />
  <g
     transform="translate(0,-0.15)"
     style="fill:none"
     id="g12"
     class="jsx-814442409">
    <path
       style="fill:#7795f8"
       id="path2"
       class="jsx-814442409"
       d="m 70.94,16.15 h -20 l -2.12,-12 a 5,5 0 0 0 -4.71,-4 h -36 l 7.05,40 h 36 a 5,5 0 0 1 4.7,4 3.26,3.26 0 0 1 -3.29,4 h -12 a 3.26,3.26 0 0 0 -3.29,4 5,5 0 0 0 4.71,4 h 36 l -11.53,-20 z" />
    <path
       style="fill:#2d2d54"
       id="path4"
       class="jsx-814442409"
       d="m 51.18,40.15 h -16 l 2.12,12 a 3.26,3.26 0 0 1 3.29,-4 h 12 a 3.26,3.26 0 0 0 3.29,-4 5,5 0 0 0 -4.7,-4 z" />
    <polygon
       style="fill:#ffffff"
       id="polygon6"
       class="jsx-814442409"
       points="33.35,17.06 29.89,10.15 28.86,17.06 21.59,17.06 28.23,21.33 27.2,28.24 32.32,23.97 38.95,28.24 35.49,21.33 40.62,17.06 " />
    <path
       style="opacity:0.2;fill:#841d0f"
       id="path8"
       class="jsx-814442409"
       d="m 62.06,56.15 -7.05,-40 h -4.06 l 4.94,28 a 3.26,3.26 0 0 1 -3.29,4 h -12 a 3.26,3.26 0 0 0 -3.29,4 5,5 0 0 0 4.71,4 h 20.06 z" />
    <polygon
       style="fill:#2d2d54"
       id="polygon10"
       class="jsx-814442409"
       points="8.12,0.15 0,0.15 11.29,64.15 19.41,64.15 " />
  </g>
</svg>
