<svg xmlns="http://www.w3.org/2000/svg" height="87" width="87" viewBox="0 0 86.6 86.6"><style>.a{opacity:0.5;}</style><g fill="none"><rect rx="43.3" height="86.6" width="86.6" fill="#43d394"/><g fill="#fff"><path d="M66.7 29.8 43.3 16.2v9l-7.8-4.5v9l-7.8-4.5v9L19.9 29.8V56.8L43.3 70.4v-9l7.8 4.5v-9l7.8 4.5v-9l7.8 4.5z" class="a"/><path d="M58.9 34.3 35.5 20.7v9l-7.8-4.5v9L19.9 29.8V56.8L43.3 70.4v-9l7.8 4.5v-9l7.8 4.5z" class="a"/><path d="M51.1 38.8 27.7 25.3v9L19.9 29.8V56.8L43.3 70.4v-9l7.8 4.5z" class="a"/><path d="M19.9 29.8V56.8L43.3 70.4V43.3Z" opacity="0.9"/></g></g></svg>
